<?xml version="1.0" standalone="no"?>
<!DOCTYPE svg PUBLIC "-//W3C//DTD SVG 20010904//EN"
 "http://www.w3.org/TR/2001/REC-SVG-20010904/DTD/svg10.dtd">
<svg version="1.0" xmlns="http://www.w3.org/2000/svg"
 width="1465.000000pt" height="1465.000000pt" viewBox="0 0 1465.000000 1465.000000"
 preserveAspectRatio="xMidYMid meet">
<metadata>
Created by potrace 1.14, written by Peter Selinger 2001-2017
</metadata>
<g transform="translate(0.000000,1465.000000) scale(0.100000,-0.100000)"
fill="#000000" stroke="none">
<path d="M2975 14640 c-91 -15 -118 -21 -178 -41 -215 -73 -391 -212 -496
-394 -47 -81 -96 -227 -109 -325 -9 -73 -9 -8872 1 -9025 4 -66 9 -133 11
-150 3 -16 8 -59 11 -95 9 -91 15 -139 21 -180 3 -19 8 -51 10 -70 19 -152 88
-475 145 -675 26 -90 97 -314 109 -340 4 -11 26 -67 48 -125 81 -215 211 -488
332 -695 29 -49 61 -106 72 -125 55 -96 228 -346 325 -470 24 -30 47 -59 51
-65 100 -134 371 -423 538 -574 32 -29 73 -65 89 -80 45 -41 295 -240 324
-259 14 -9 28 -19 31 -22 18 -19 251 -172 379 -250 113 -67 401 -215 491 -250
30 -12 59 -25 65 -29 5 -4 39 -18 75 -31 36 -13 79 -29 95 -36 47 -21 309
-109 385 -129 199 -54 337 -87 420 -101 14 -2 36 -7 50 -10 13 -3 40 -7 60
-10 19 -2 42 -6 50 -9 8 -2 38 -7 65 -10 28 -3 75 -10 105 -15 30 -5 89 -12
130 -15 41 -3 82 -8 90 -10 95 -25 894 -26 1095 -1 17 2 64 7 105 11 41 4 82
9 91 10 9 2 40 6 70 10 63 7 365 61 424 76 22 5 50 12 61 14 241 53 630 183
874 292 93 41 365 181 450 231 157 92 433 279 545 369 334 270 574 505 800
783 42 52 85 105 96 117 64 76 362 526 392 593 4 8 15 29 25 45 163 266 347
694 451 1045 57 192 126 491 145 625 3 22 7 49 9 60 3 11 8 47 12 80 4 33 9
69 10 80 2 11 6 49 10 85 3 36 8 72 10 80 19 76 27 769 11 985 -8 117 -10 130
-21 240 -4 39 -9 81 -10 95 -13 119 -45 311 -80 480 -75 356 -198 734 -341
1050 -64 142 -226 453 -299 572 -5 9 -26 44 -45 77 -19 34 -38 61 -42 61 -5 0
-8 5 -8 11 0 10 -94 152 -150 229 -15 19 -46 62 -71 95 -24 33 -46 62 -49 65
-3 3 -25 30 -50 60 -106 131 -173 204 -325 355 -191 191 -201 200 -379 343
-185 149 -486 349 -700 466 -455 249 -953 416 -1461 490 -89 13 -126 18 -240
30 -98 11 -317 20 -495 20 -190 1 -455 -10 -469 -18 -3 -2 -46 -7 -96 -11 -49
-4 -92 -8 -95 -10 -3 -1 -27 -6 -55 -9 -271 -36 -670 -141 -955 -253 -306
-120 -682 -317 -940 -493 -115 -78 -312 -226 -385 -288 -210 -181 -455 -424
-566 -562 -18 -22 -35 -40 -38 -40 -3 0 -6 1151 -7 2558 0 1406 -4 2586 -8
2622 -26 211 -115 398 -261 546 -111 113 -279 199 -460 235 -65 13 -316 19
-380 9z m4660 -5975 c22 -3 60 -7 85 -10 70 -6 201 -27 315 -50 714 -145 1425
-598 1878 -1197 231 -305 428 -677 543 -1023 33 -100 79 -265 88 -318 3 -15 7
-35 10 -45 9 -28 42 -226 52 -306 3 -22 7 -54 9 -71 26 -180 26 -775 0 -915
-1 -8 -6 -40 -10 -70 -3 -30 -9 -68 -11 -85 -8 -57 -46 -240 -61 -300 -8 -33
-16 -67 -18 -75 -30 -152 -143 -449 -260 -680 -259 -515 -574 -901 -1000
-1228 -345 -263 -790 -459 -1245 -547 -61 -12 -138 -25 -175 -30 -22 -3 -53
-7 -70 -9 -154 -21 -611 -29 -770 -13 -462 46 -826 150 -1217 348 -117 60
-338 198 -405 253 -10 8 -34 28 -54 43 -101 79 -145 119 -274 248 -141 141
-167 168 -240 260 -21 28 -42 52 -45 55 -3 3 -22 28 -41 55 -18 28 -37 52 -40
55 -5 4 -102 151 -154 235 -104 166 -301 600 -335 740 -4 17 -19 68 -33 115
-26 89 -82 335 -92 405 -3 22 -10 67 -15 100 -5 33 -12 92 -15 130 -3 39 -10
106 -14 150 -9 82 -7 620 2 665 3 14 8 57 11 95 4 39 8 81 11 95 2 14 6 47 10
75 3 27 10 70 15 95 5 25 11 59 14 75 7 50 55 242 82 334 165 550 450 1028
845 1421 117 117 141 138 254 227 529 416 1142 657 1775 699 52 3 96 8 98 9 6
5 456 -4 497 -10z"/>
</g>
</svg>
